<svg width="359" height="275" viewBox="0 0 359 275" fill="none" xmlns="http://www.w3.org/2000/svg">
<rect width="359" height="275" rx="41" fill="#D3F954"/>
<path d="M23.2589 50.4021C20.5285 53.1319 19.8206 56.4683 20.4274 63.9499C21.5398 77.4977 29.0232 85.0804 44.3944 88.4168C61.586 92.0565 76.1482 89.8322 129.948 75.2734C139.858 72.6447 143.903 72.7458 146.128 75.88C147.847 78.4076 147.645 78.7109 140.161 91.8543C132.88 104.593 117.307 137.351 110.936 153.628C104.565 169.602 97.9916 190.126 94.5533 204.079C92.0251 214.694 91.8229 216.11 93.1375 218.738C94.4522 221.569 94.9578 221.772 101.127 222.075C113.06 222.682 119.633 218.334 120.846 209.336C122.667 196.496 128.229 179.308 134.6 166.367C144.004 147.663 154.319 133.61 170.297 117.534C180.309 107.525 197.602 92.8653 199.321 92.8653C199.725 92.8653 196.287 100.246 191.736 109.244C182.23 128.15 174.342 147.562 170.297 162.121C167.87 170.917 167.466 174.051 167.365 185.88C167.365 198.619 167.567 199.933 170.095 205.292C175.455 216.716 185.972 224.805 192.444 222.378C196.186 220.963 196.691 217.727 194.669 208.628C191.332 193.766 194.365 181.027 205.692 161.818C218.332 140.485 247.356 106.818 271.424 85.3837L278.503 79.2164L270.615 93.8764C240.277 150.595 230.063 180.117 231.883 206.101C232.692 216.514 236.434 225.007 243.109 231.174C248.064 235.724 255.042 238.454 257.671 236.836C261.109 234.612 261.311 232.792 259.491 223.086C255.446 201.349 258.379 177.084 268.087 151.606C272.84 139.069 288.211 108.637 295.29 97.6172C304.492 83.2606 304.695 76.79 296.099 67.0841L291.953 62.3322L284.773 62.7367C263.84 63.7477 238.457 85.4848 207.006 129.262C204.175 133.408 211.355 120.264 216.512 112.075C221.771 103.784 223.49 99.9425 223.49 96.6061C223.49 88.0124 216.108 78.2054 208.928 77.1944C197.096 75.3745 173.634 88.7201 156.847 106.818L152.499 111.569L157.05 102.976C162.713 92.4609 164.836 84.8782 163.926 78.7109C162.511 69.6117 157.859 64.3543 148.151 60.9168C139.555 57.8837 119.835 58.4903 96.5759 62.4333C71.6987 66.7808 57.0353 67.0841 48.035 63.6466C43.4843 61.8267 40.3494 59.6025 35.6975 54.8506C28.922 47.9756 26.5961 47.0657 23.2589 50.4021Z" fill="#144424"/>
</svg>
