<svg width="101" height="28" viewBox="0 0 101 28" fill="none" xmlns="http://www.w3.org/2000/svg">
<path d="M65.8991 0.426275C64.8141 1.87271 60.6729 2.11632 54.9119 1.06575C50.2205 0.197891 47.3171 -4.20176e-05 45.8501 0.426275C44.4595 0.822142 43.6191 2.26858 44.0011 3.54753C44.215 4.24791 45.0861 5.16144 45.5445 5.16144C46.5683 5.16144 47.7603 3.68456 46.9809 3.39527C46.6295 3.25824 46.7059 2.89283 47.1337 2.69489C47.4394 2.55786 48.0201 2.61877 50.1747 3.02986L52.8489 3.5323L52.2377 4.61332C49.7621 8.98308 46.767 16.5502 46.4919 19.0929C46.385 20.113 46.5989 20.2957 47.8214 20.2044C48.9828 20.1282 49.5329 19.7476 49.701 18.9254C50.0372 17.4028 50.8776 14.8754 51.9932 12.0891C53.5213 8.25225 54.1325 7.0342 55.3245 5.48118C56.1649 4.36971 56.3025 4.23268 56.6692 4.30881C57.7542 4.53719 60.8104 4.85693 61.8495 4.85693C64.4321 4.85693 66.3117 4.24791 67.0146 3.18211C67.4883 2.46651 67.6564 1.0353 67.3508 0.441501C67.0299 -0.137073 66.3117 -0.152298 65.8991 0.426275Z" fill="#D3F954"/>
<path d="M0.235743 0.472009C-0.100443 0.928778 -0.0698807 2.1925 0.281587 2.95379C0.877554 4.27842 2.16118 4.85699 4.54504 4.85699C6.16485 4.85699 7.87634 4.55248 11.1771 3.63894C14.9515 2.6036 15.1196 2.71018 13.6832 5.26808C10.6728 10.658 7.7541 18.9255 8.45703 20.0522C8.62512 20.3415 10.0768 20.2653 10.7951 19.9304C11.2229 19.7477 11.4674 19.5345 11.5133 19.2909C12.4301 14.7384 13.4998 12.4546 16.2963 9.18107C17.0909 8.2523 19.2303 6.27297 20.2083 5.58782C20.6209 5.28331 20.6056 5.32898 19.8721 6.80587C18.9094 8.70907 17.9925 10.9168 17.4729 12.5155C17.0145 13.9771 16.8158 16.7178 17.0909 17.7379C17.4271 18.9864 18.6649 20.2349 19.5665 20.2349C20.2847 20.2349 20.3917 19.9304 20.1624 18.4839C19.8874 16.7634 20.0249 16.0174 20.9112 14.2207C22.1031 11.8456 23.7535 9.69874 26.9626 6.39478C29.7285 3.56281 29.7437 3.57804 27.7572 7.4758C25.2358 12.4089 24.4412 14.845 24.4565 17.6465C24.4565 19.23 24.6398 19.9456 25.2816 20.783C26.0457 21.7879 27.2071 22.2142 27.6502 21.6661C27.8183 21.4834 27.8183 21.2093 27.6349 20.1892C27.2223 17.8444 27.4516 15.454 28.3532 12.8048C28.8727 11.2365 30.6606 7.55193 31.6997 5.92278C32.4027 4.79609 32.5402 4.49157 32.5402 3.88255C32.5402 3.02991 32.2651 2.45134 31.5928 1.88799C31.1649 1.52258 31.0121 1.49213 30.4161 1.56825C28.3684 1.84232 25.4956 4.05003 23.1575 7.14083C22.745 7.68896 22.3324 8.1914 22.256 8.28276C22.042 8.51114 22.4393 7.76508 22.913 7.06471C23.1423 6.72974 23.3715 6.25775 23.4326 6.02936C23.5854 5.40511 23.2645 4.4459 22.7144 3.8521C22.3171 3.41055 22.1184 3.3192 21.5989 3.30398C20.193 3.28875 18.4357 4.21751 16.6019 5.90756L15.5934 6.86677L16.0824 5.90756C16.4949 5.11583 16.5713 4.79609 16.5713 3.92823C16.5713 2.71018 16.2963 2.25341 15.2572 1.65961C14.2333 1.08103 12.1092 1.05058 8.96131 1.56825C5.81338 2.08593 4.02548 2.10115 2.9558 1.59871C2.52792 1.40077 1.9778 0.98968 1.7333 0.685168C1.21374 0.0304656 0.602492 -0.0456625 0.235743 0.472009Z" fill="#D3F954"/>
<path d="M82.8765 0.913544C82.3111 1.20283 80.1259 4.87221 78.8881 7.64327C78.0782 9.47035 76.6571 13.1702 76.3973 14.1446C76.1069 15.1952 75.5263 16.2457 74.7469 17.0679C73.8912 17.9815 73.1118 18.4078 72.3019 18.4078C70.8196 18.4078 70.6057 17.2811 71.6601 15.0886C72.6534 13.0331 73.5244 12.0587 74.0287 12.4698C74.1509 12.5764 74.2579 12.82 74.2579 13.0179C74.2579 13.429 74.5177 13.4899 74.9456 13.1702C75.3123 12.9113 75.3276 11.6781 74.9608 10.9929C74.5483 10.186 73.3105 9.95757 72.1949 10.4752C71.003 11.0234 70.0097 12.2719 69.154 14.2816C68.558 15.6672 67.6412 17.1136 67.1216 17.4486C66.7854 17.677 66.7243 17.677 66.4951 17.4486C66.2658 17.205 66.2811 17.1136 66.602 16.1087C66.7854 15.5301 67.2897 14.373 67.7023 13.566C68.4816 12.0283 68.5733 11.6476 68.2524 11.2365C67.9621 10.8407 66.9077 10.186 66.5867 10.186C66.4187 10.186 66.2047 10.3839 66.0672 10.7036L65.8074 11.2213L65.4101 10.7645C64.4779 9.71396 62.4914 10.2012 61.2383 11.7694C60.8869 12.1957 60.3826 13.0636 60.0922 13.6878C58.7475 16.6416 58.121 17.5247 56.9443 18.0881C55.6912 18.6971 54.3923 18.3773 54.3923 17.4638C54.3923 17.1745 54.5452 17.0679 55.3398 16.8395C56.1191 16.6112 56.44 16.398 57.2347 15.6063C57.9834 14.8602 58.2432 14.4796 58.4266 13.8401C59.2365 11.0995 57.8765 9.48557 55.6148 10.5057C53.4755 11.4649 51.5348 15.6063 52.0085 18.1642C52.1613 18.9864 52.8948 19.7324 53.8269 20.0065C55.4926 20.4937 56.8068 20.174 58.1668 18.9407C58.6864 18.4839 59.1448 18.1033 59.1906 18.1033C59.2365 18.1033 59.2823 18.2403 59.2823 18.3926C59.2823 18.8493 60.077 19.5954 60.7035 19.702C61.6968 19.8847 62.2927 19.6715 63.179 18.8189L63.9889 18.0271L64.0806 18.5753C64.2334 19.5345 65.135 20.0674 66.2658 19.8542C66.6784 19.7781 67.0605 19.5193 67.7176 18.8341C68.3594 18.1794 68.6039 17.9967 68.6039 18.1946C68.6039 18.7123 69.1846 19.4584 69.8569 19.8085C70.3765 20.0674 70.7738 20.1435 71.7365 20.1435C73.0965 20.1587 73.6314 19.9456 74.8233 18.9255L75.4651 18.3773L75.3734 18.895C75.3123 19.3518 75.3582 19.4736 75.786 19.8238C76.0917 20.0826 76.4431 20.2349 76.7793 20.2349C77.253 20.2349 77.2989 20.1892 77.6962 19.1995C78.2463 17.814 79.3466 15.789 80.1565 14.6775C81.4248 12.9266 81.4401 12.9266 80.9358 14.3882C80.5385 15.5454 80.4774 15.9869 80.4621 17.3877L80.4468 19.0473L80.9511 19.4888C81.8527 20.2958 83.1057 19.9913 84.1907 18.7428L84.7867 18.0424L84.9548 18.4839C85.2298 19.1995 85.8716 19.7629 86.6968 20.0065C88.2861 20.4785 89.6461 20.174 90.9144 19.0473L91.7549 18.3012L91.709 18.8646C91.6632 19.3366 91.7243 19.4888 92.1369 19.8238C92.4425 20.0826 92.794 20.2349 93.0996 20.2349C93.5581 20.2349 93.6192 20.174 93.9554 19.2756C94.6278 17.5095 96.706 13.9619 97.4242 13.3681C97.6076 13.2311 97.6076 13.2768 97.4701 13.6574C97.3784 13.9162 97.3325 14.3121 97.3631 14.5405C97.4089 14.9059 97.5312 15.0125 98.2341 15.2409C98.6926 15.4083 99.151 15.4997 99.258 15.454C99.5789 15.3322 101 12.3632 101 11.8151C101 11.4801 100.878 11.1908 100.664 10.9929C100.175 10.5514 99.3955 10.186 98.9829 10.186C98.3411 10.2012 97.0269 11.4192 95.9878 12.9722C95.7738 13.2768 95.5752 13.5204 95.5446 13.4899C95.5141 13.4595 95.6974 12.9722 95.9572 12.4089C96.2017 11.8303 96.4157 11.2213 96.4157 11.0386C96.4157 10.5209 95.2848 9.57693 94.6583 9.57693C94.3527 9.57693 93.9248 10.5209 93.0691 13.094C92.1369 15.926 91.1131 17.4486 89.7683 18.1033C88.5458 18.6971 87.2469 18.3621 87.2469 17.4486C87.2469 17.1745 87.3997 17.0679 88.1944 16.8395C88.9737 16.6112 89.2946 16.398 90.0892 15.6063C90.838 14.8602 91.0978 14.4796 91.2812 13.8401C92.0758 11.1604 90.731 9.48557 88.5458 10.4752C87.2011 11.0843 86.2689 12.2719 85.3673 14.4796C84.5422 16.5198 83.503 17.8292 82.8918 17.5856C82.7695 17.5399 82.6626 17.3724 82.6626 17.2202C82.6626 16.733 83.2433 15.2104 84.0379 13.6117C84.4658 12.7591 84.8019 11.9369 84.8019 11.7542C84.8019 11.3888 83.7017 10.3839 83.1669 10.2469C82.9682 10.186 82.632 10.2012 82.4181 10.2469C81.8832 10.3839 80.5843 11.6933 79.7133 13.0027C79.316 13.5813 78.9951 14.0228 78.9951 13.9771C78.9951 13.7487 80.1412 11.0538 80.783 9.74441C81.547 8.20662 82.8154 6.19684 84.0379 4.61337C84.6186 3.85209 84.8019 3.48668 84.8019 3.07558C84.8019 2.39043 84.4199 1.5987 83.8545 1.1267C83.3502 0.700386 83.3349 0.700386 82.8765 0.913544ZM57.3569 12.957C57.3416 13.6422 56.6692 14.6014 55.8441 15.1191C54.9578 15.7129 54.8049 15.6367 55.1564 14.8298C55.7371 13.4899 56.7915 12.2262 57.2194 12.3632C57.2958 12.3937 57.3722 12.6677 57.3569 12.957ZM64.7836 12.5459C65.1809 13.0179 64.4627 15.1038 63.3319 16.7482C62.2469 18.3317 61.4675 18.4687 61.6051 17.0679C61.7426 15.6063 63.668 12.3175 64.3863 12.3175C64.5085 12.3175 64.6766 12.4241 64.7836 12.5459ZM90.2115 12.957C90.1962 13.6422 89.5238 14.6014 88.6986 15.1191C87.8123 15.7129 87.6595 15.6367 88.011 14.8298C88.5917 13.4899 89.6461 12.2262 90.074 12.3632C90.1504 12.3937 90.2268 12.6677 90.2115 12.957Z" fill="#D3F954"/>
<path d="M30.9204 9.95763C30.5995 10.4449 29.5604 13.3834 29.0867 15.1343C28.4754 17.4334 28.6588 19.1844 29.5757 19.6107C30.0647 19.8238 31.0885 19.8238 31.5164 19.6107C31.6998 19.5193 32.1735 19.1235 32.5861 18.7428L33.3043 18.0424V18.8342C33.3043 19.5193 33.2126 19.7782 32.7083 20.509C31.0427 22.9603 30.1564 25.6553 30.5995 26.9342C30.8287 27.5889 31.5775 28 32.5555 28C33.7933 28 34.7407 27.1017 35.2603 25.4269C35.4742 24.7417 35.5201 24.0261 35.5048 21.7575L35.4895 18.9408L37.308 17.1289C38.668 15.789 39.1111 15.2409 39.0806 14.9973C38.9889 14.3426 38.4388 14.5405 37.0023 15.7281L35.627 16.8701L35.7798 16.3067C35.8562 16.0022 36.2841 14.9821 36.7273 14.0686C37.7358 12.0131 37.797 11.7999 37.583 11.4041C37.3538 10.993 36.2383 10.186 35.8868 10.186C35.5353 10.186 35.1075 11.0082 34.0836 13.627C33.289 15.6368 32.2957 17.3725 31.7609 17.6618C31.3636 17.8597 31.0121 17.6009 31.0121 17.0985C31.0121 16.5808 31.8831 13.9467 32.4791 12.6373C33.2737 10.9321 33.182 10.4296 31.9748 9.8206C31.333 9.50087 31.2108 9.51609 30.9204 9.95763ZM33.8238 22.4731C34.0989 24.2088 33.778 26.1425 33.1362 26.4774C32.311 26.919 31.6692 26.4165 31.8526 25.4725C31.9595 24.8635 33.4113 21.9098 33.5946 21.9098C33.671 21.9098 33.7627 22.1686 33.8238 22.4731Z" fill="#D3F954"/>
</svg>
