<svg width="494" height="138" viewBox="0 0 494 138" fill="none" xmlns="http://www.w3.org/2000/svg">
<path d="M322.318 2.10152C317.012 9.23038 296.757 10.431 268.579 5.25323C245.633 0.975914 231.432 0.000389099 224.257 2.10152C217.456 4.05258 213.345 11.1814 215.213 17.4848C216.26 20.9367 220.52 25.4391 222.762 25.4391C227.77 25.4391 233.6 18.1602 229.788 16.7344C228.069 16.0591 228.443 14.2581 230.535 13.2826C232.03 12.6072 234.87 12.9074 245.409 14.9335L258.489 17.4098L255.499 22.7377C243.391 44.2743 228.742 81.5695 227.396 94.1013C226.873 99.129 227.919 100.029 233.899 99.5792C239.579 99.204 242.27 97.328 243.092 93.2758C244.736 85.7718 248.847 73.315 254.303 59.5826C261.777 40.6724 264.767 34.6691 270.597 27.015C274.708 21.537 275.38 20.8617 277.174 21.2369C282.481 22.3625 297.429 23.9383 302.512 23.9383C315.143 23.9383 324.336 20.9367 327.774 15.6839C330.091 12.157 330.914 5.10315 329.419 2.17657C327.849 -0.67498 324.336 -0.750015 322.318 2.10152Z" fill="#144424"/>
<path d="M1.15304 2.32661C-0.491276 4.57783 -0.341792 10.8062 1.37727 14.5582C4.29219 21.0868 10.5705 23.9383 22.2302 23.9383C30.1528 23.9383 38.5239 22.4375 54.6681 17.9351C73.1293 12.8323 73.9515 13.3576 66.9258 25.9644C52.2016 52.5288 37.926 93.2758 41.3641 98.8288C42.1862 100.255 49.2867 99.8794 52.7996 98.2285C54.8923 97.328 56.0882 96.2774 56.3124 95.0768C60.7969 72.6396 66.0289 61.3835 79.7066 45.2498C83.5932 40.6723 94.057 30.9171 98.8405 27.5402C100.859 26.0394 100.784 26.2646 97.1962 33.5435C92.4874 42.9236 88.0029 53.8045 85.4617 61.6837C83.2195 68.8876 82.2478 82.3949 83.5932 87.4226C85.2375 93.576 91.2916 99.7293 95.7013 99.7293C99.2142 99.7293 99.7374 98.2285 98.6163 91.0996C97.2709 82.62 97.9436 78.943 102.279 70.0883C108.108 58.3819 116.181 47.8012 131.876 31.5174C145.405 17.5598 145.479 17.6349 135.763 36.8453C123.431 61.1584 119.544 73.1649 119.619 86.9724C119.619 94.7766 120.516 98.3035 123.655 102.431C127.392 107.383 133.072 109.485 135.24 106.783C136.062 105.883 136.062 104.532 135.165 99.5042C133.147 87.9479 134.268 76.1665 138.678 63.1095C141.219 55.3803 149.964 37.2205 155.046 29.1911C158.484 23.6381 159.157 22.1373 159.157 19.1357C159.157 14.9334 157.812 12.0819 154.523 9.30538C152.43 7.50441 151.683 7.35432 148.768 7.72953C138.753 9.08026 124.701 19.9611 113.266 35.1944C111.248 37.8958 109.23 40.3722 108.856 40.8224C107.809 41.948 109.753 38.271 112.07 34.8192C113.191 33.1683 114.312 30.842 114.611 29.7164C115.358 26.6398 113.789 21.9122 111.098 18.9856C109.155 16.8094 108.183 16.3592 105.642 16.2842C98.7657 16.2091 90.1704 20.7866 81.2014 29.1161L76.2685 33.8437L78.6602 29.1161C80.6782 25.214 81.0519 23.6381 81.0519 19.3608C81.0519 13.3576 79.7066 11.1064 74.6242 8.17977C69.6165 5.32823 59.2274 5.17815 43.8306 7.72953C28.4338 10.2809 19.689 10.3559 14.4571 7.87961C12.3643 6.90408 9.6736 4.87799 8.47773 3.37717C5.93651 0.150429 2.94684 -0.22477 1.15304 2.32661Z" fill="#144424"/>
<path d="M405.356 4.50282C402.591 5.92859 391.903 24.0134 385.849 37.6707C381.887 46.6756 374.936 64.9105 373.666 69.7131C372.246 74.8909 369.406 80.0687 365.594 84.1209C361.408 88.6233 357.596 90.7244 353.635 90.7244C346.385 90.7244 345.339 85.1714 350.496 74.3656C355.354 64.2351 359.614 59.4325 362.081 61.4586C362.679 61.9839 363.202 63.1845 363.202 64.1601C363.202 66.1862 364.473 66.4863 366.565 64.9105C368.359 63.6348 368.434 57.5565 366.64 54.1797C364.622 50.2025 358.568 49.0769 353.112 51.6283C347.282 54.3298 342.424 60.4831 338.238 70.3884C335.323 77.2171 330.839 84.346 328.298 85.9969C326.653 87.1225 326.354 87.1225 325.233 85.9969C324.112 84.7962 324.187 84.346 325.756 79.3933C326.653 76.5418 329.12 70.8387 331.138 66.8615C334.95 59.2824 335.398 57.4064 333.828 55.3803C332.408 53.4293 327.251 50.2025 325.682 50.2025C324.859 50.2025 323.813 51.1781 323.14 52.7539L321.87 55.3053L319.926 53.0541C315.367 47.8763 305.651 50.2776 299.522 58.0067C297.803 60.1079 295.336 64.3852 293.916 67.4619C287.339 82.0197 284.275 86.3721 278.52 89.1486C272.391 92.1502 266.038 90.5744 266.038 86.0719C266.038 84.6462 266.785 84.1209 270.672 82.9953C274.484 81.8697 276.053 80.8191 279.94 76.917C283.602 73.24 284.873 71.364 285.77 68.2123C289.731 54.705 283.079 46.7507 272.017 51.7784C261.553 56.5059 252.061 76.917 254.378 89.5238C255.125 93.576 258.713 97.253 263.272 98.6037C271.419 101.005 277.847 99.4291 284.499 93.3509C287.04 91.0996 289.282 89.2236 289.507 89.2236C289.731 89.2236 289.955 89.899 289.955 90.6494C289.955 92.9006 293.842 96.5776 296.906 97.1029C301.764 98.0034 304.679 96.9528 309.014 92.7505L312.976 88.8484L313.424 91.5499C314.171 96.2774 318.581 98.9039 324.112 97.8533C326.13 97.4781 327.999 96.2024 331.213 92.8256C334.352 89.5988 335.548 88.6983 335.548 89.6739C335.548 92.2253 338.388 95.9022 341.676 97.6282C344.218 98.9039 346.161 99.2791 350.87 99.2791C357.522 99.3541 360.138 98.3035 365.967 93.2758L369.107 90.5744L368.658 93.1257C368.359 95.377 368.583 95.9773 370.676 97.7032C372.171 98.9789 373.89 99.7293 375.534 99.7293C377.851 99.7293 378.076 99.5042 380.019 94.6265C382.71 87.7979 388.091 77.8175 392.052 72.3395C398.256 63.7098 398.331 63.7098 395.864 70.9137C393.921 76.6168 393.622 78.793 393.547 85.6967L393.472 93.8761L395.939 96.0523C400.349 100.029 406.477 98.5287 411.784 92.3753L414.699 88.9235L415.521 91.0996C416.867 94.6265 420.006 97.4031 424.042 98.6037C431.815 100.93 438.467 99.4291 444.67 93.8761L448.781 90.1992L448.557 92.9757C448.333 95.3019 448.632 96.0523 450.65 97.7032C452.145 98.9789 453.864 99.7293 455.359 99.7293C457.601 99.7293 457.9 99.4291 459.544 95.0018C462.833 86.297 472.998 68.8126 476.51 65.886C477.407 65.2106 477.407 65.4358 476.735 67.3118C476.286 68.5875 476.062 70.5385 476.211 71.6641C476.436 73.4651 477.034 73.9904 480.472 75.116C482.714 75.9414 484.956 76.3917 485.479 76.1666C487.049 75.5662 494 60.9333 494 58.2319C494 56.581 493.402 55.1552 492.356 54.1797C489.964 52.0035 486.152 50.2025 484.134 50.2025C480.995 50.2776 474.567 56.2808 469.485 63.935C468.438 65.4358 467.467 66.6364 467.317 66.4863C467.168 66.3363 468.065 63.935 469.335 61.1585C470.531 58.3069 471.577 55.3053 471.577 54.4048C471.577 51.8534 466.047 47.2009 462.982 47.2009C461.487 47.2009 459.395 51.8534 455.209 64.5353C450.65 78.4928 445.642 85.9969 439.065 89.2236C433.085 92.1502 426.732 90.4993 426.732 85.9969C426.732 84.6462 427.48 84.1209 431.366 82.9953C435.178 81.8697 436.748 80.8191 440.634 76.917C444.297 73.24 445.567 71.364 446.464 68.2123C450.351 55.0051 443.774 46.7507 433.085 51.6283C426.508 54.6299 421.949 60.4831 417.539 71.364C413.503 81.4194 408.421 87.8729 405.431 86.6722C404.833 86.4471 404.31 85.6217 404.31 84.8713C404.31 82.47 407.15 74.9659 411.037 67.0867C413.129 62.8844 414.774 58.8322 414.774 57.9317C414.774 56.1307 409.392 51.1781 406.776 50.5027C405.805 50.2025 404.16 50.2776 403.114 50.5027C400.498 51.1781 394.145 57.6315 389.885 64.085C387.941 66.9366 386.372 69.1128 386.372 68.8876C386.372 67.762 391.978 54.4798 395.117 48.0264C398.854 40.4473 405.057 30.5419 411.037 22.7377C413.877 18.9856 414.774 17.1847 414.774 15.1586C414.774 11.7818 412.905 7.87964 410.14 5.55338C407.673 3.45225 407.599 3.45225 405.356 4.50282ZM280.538 63.8599C280.463 67.2367 277.174 71.9643 273.138 74.5157C268.803 77.4423 268.056 77.0671 269.775 73.0899C272.615 66.4863 277.772 60.258 279.865 60.9333C280.239 61.0834 280.612 62.4341 280.538 63.8599ZM316.862 61.8338C318.805 64.1601 315.293 74.4406 309.762 82.545C304.455 90.3492 300.643 91.0246 301.316 84.1209C301.988 76.917 311.406 60.7082 314.919 60.7082C315.517 60.7082 316.339 61.2335 316.862 61.8338ZM441.232 63.8599C441.158 67.2367 437.869 71.9643 433.833 74.5157C429.498 77.4423 428.75 77.0671 430.47 73.0899C433.31 66.4863 438.467 60.258 440.56 60.9333C440.933 61.0834 441.307 62.4341 441.232 63.8599Z" fill="#144424"/>
<path d="M151.234 49.0769C149.665 51.4782 144.582 65.961 142.265 74.5907C139.276 85.9218 140.173 94.5515 144.657 96.6526C147.049 97.7032 152.057 97.7032 154.149 96.6526C155.046 96.2024 157.363 94.2513 159.381 92.3753L162.894 88.9235V92.8256C162.894 96.2024 162.446 97.4781 159.979 101.08C151.832 113.162 147.497 126.444 149.665 132.747C150.786 135.974 154.448 138 159.232 138C165.286 138 169.92 133.573 172.461 125.318C173.507 121.941 173.732 118.414 173.657 107.233L173.582 93.3509L182.476 84.421C189.128 77.8175 191.296 75.116 191.146 73.9153C190.698 70.6886 188.007 71.6641 180.982 77.5173L174.255 83.1453L175.002 80.3688C175.376 78.868 177.469 73.8403 179.636 69.3379C184.569 59.2074 184.868 58.1568 183.822 56.2058C182.701 54.1797 177.245 50.2025 175.525 50.2025C173.806 50.2025 171.714 54.2547 166.706 67.1617C162.819 77.0671 157.961 85.6217 155.345 87.0474C153.402 88.023 151.683 86.7473 151.683 84.2709C151.683 81.7196 155.943 68.7375 158.858 62.2841C162.745 53.8795 162.296 51.4032 156.392 48.4016C153.252 46.8257 152.655 46.9007 151.234 49.0769ZM165.435 110.76C166.781 119.315 165.211 128.845 162.072 130.496C158.036 132.672 154.897 130.196 155.794 125.543C156.317 122.542 163.417 107.984 164.314 107.984C164.688 107.984 165.136 109.259 165.435 110.76Z" fill="#144424"/>
</svg>
